/* XPM */
static char * south_texture_xpm[] = {
"50 50 2 1",
" 	c #000000",
".	c #FFFFFF",
"                                                  ",
"                                                  ",
"                                                  ",
"                                                  ",
"                        ....................      ",
"                    ........................      ",
"                 ...........................      ",
"               .............................      ",
"              ..............................      ",
"             ...............                      ",
"            ............                          ",
"           ...........                            ",
"          .........                               ",
"          ........                                ",
"          .......                                 ",
"          ......                                  ",
"          ......                                  ",
"          .......                                 ",
"          ........                                ",
"          .........                               ",
"          ..........                              ",
"           ..............                         ",
"            ................                      ",
"             ..................                   ",
"               ..................                 ",
"                ...................               ",
"                    .................             ",
"                       ...............            ",
"                           .............          ",
"                             ...........          ",
"                               .........          ",
"                                ........          ",
"                                  ......          ",
"                                   .....          ",
"                                   .....          ",
"                                   .....          ",
"                                  ......          ",
"                                 .......          ",
"           .............................          ",
"           .............................          ",
"           ............................           ",
"           ............................           ",
"           ..........................             ",
"                                                  ",
"                                                  ",
"                                                  ",
"                                                  ",
"                                                  ",
"                                                  ",
"                                                  "};
